<svg aria-hidden="true" style="width:0;height:0;position:absolute;overflow:hidden" xmlns="http://www.w3.org/2000/svg"><defs><symbol id="icon-day-sunny" viewBox="0 0 32 32"><path d="M16.066 9.14a7 7 0 0 0-6.993 6.993 7 7 0 0 0 6.993 6.993 7 7 0 0 0 6.993-6.993 7 7 0 0 0-6.993-6.993zm0 13c-3.312 0-6.007-2.695-6.007-6.007s2.695-6.007 6.007-6.007 6.007 2.695 6.007 6.007-2.695 6.007-6.007 6.007zM16 6.584a.5.5 0 0 0 .5-.5V.5a.5.5 0 0 0-1 0v5.584a.5.5 0 0 0 .5.5zM16 25.415a.5.5 0 0 0-.5.5V31.5a.5.5 0 0 0 1 0v-5.585a.5.5 0 0 0-.5-.5zM31.132 15.223h-5.585a.5.5 0 0 0 0 1h5.585a.5.5 0 0 0 0-1zM6.953 15.723a.5.5 0 0 0-.5-.5H.868a.5.5 0 0 0 0 1h5.585a.5.5 0 0 0 .5-.5zM22.59 9.939a.502.502 0 0 0 .354-.146l3.949-3.949a.5.5 0 0 0-.707-.707l-3.949 3.949a.5.5 0 0 0 .354.853zM22.944 22.602a.5.5 0 0 0-.707.707l3.949 3.949a.498.498 0 0 0 .708 0 .5.5 0 0 0 0-.707l-3.949-3.949zM9.056 9.793a.498.498 0 0 0 .708 0 .5.5 0 0 0 0-.707L5.815 5.137a.5.5 0 0 0-.707.707l3.949 3.949zM9.786 22.635c-.009-.01-.012-.024-.022-.034a.5.5 0 0 0-.707 0l-1.97 1.97-2.017 1.922a.5.5 0 0 0-.017.707c.01.01.023.014.033.023.009.01.012.024.022.034a.498.498 0 0 0 .708 0l1.97-1.97 2.017-1.922a.5.5 0 0 0 .017-.707c-.01-.01-.023-.014-.033-.023z"/></symbol><symbol id="icon-moon-line" viewBox="0 0 32 32"><path d="M12.775.331a15.892 15.892 0 0 1 3.387-.33.57.57 0 0 1 .195 1.104 10.63 10.63 0 0 0-5.458 4.849 10.619 10.619 0 0 0-1.065 7.208l.003.018a10.627 10.627 0 0 0 4.578 6.747 10.63 10.63 0 0 0 8.002 1.542l.018-.003a10.615 10.615 0 0 0 5.286-2.807 10.715 10.715 0 0 0 2.95-5.25.57.57 0 0 1 1.117.036 15.954 15.954 0 0 1-2.62 11.642 15.931 15.931 0 0 1-9.942 6.585 15.954 15.954 0 0 1-12.025-2.307 15.965 15.965 0 0 1-6.872-10.14A15.948 15.948 0 0 1 2.48 7.442 15.96 15.96 0 0 1 12.49.391h.003l.281-.06zm.729 1.023c-.167.029-.333.06-.497.094l-.263.057c-.075.018-.164.036-.26.06a14.804 14.804 0 0 0-9.036 6.489 14.804 14.804 0 0 0-2 10.939 14.817 14.817 0 0 0 6.382 9.413 14.804 14.804 0 0 0 11.166 2.143 14.812 14.812 0 0 0 9.234-6.117 14.835 14.835 0 0 0 2.627-8.179 11.86 11.86 0 0 1-2.333 3.213 11.763 11.763 0 0 1-5.861 3.112h-.003a11.775 11.775 0 0 1-8.872-1.703 11.761 11.761 0 0 1-5.065-7.473v-.003a11.733 11.733 0 0 1 1.172-7.992 11.796 11.796 0 0 1 3.609-4.054z"/></symbol><symbol id="icon-arrow-left" viewBox="0 0 32 32"><path stroke-linejoin="round" stroke-linecap="round" stroke-width="2.667" d="M25.333 16H6.666M16 25.333 6.667 16 16 6.667"/></symbol><symbol id="icon-close" viewBox="0 0 32 32"><path stroke-width="2.133" d="m8.533 8.533 14.933 14.933M8.533 23.467 23.466 8.534"/></symbol><symbol id="icon-logo-filmoteka" viewBox="0 0 32 32"><path fill="none" stroke="#fff" style="stroke:var(--color1,#fff)" stroke-linejoin="round" stroke-linecap="round" stroke-width="2.667" d="M26.427 2.667H5.574a2.907 2.907 0 0 0-2.907 2.907v20.853a2.907 2.907 0 0 0 2.907 2.907h20.853a2.907 2.907 0 0 0 2.907-2.907V5.574a2.907 2.907 0 0 0-2.907-2.907zM9.333 2.667v26.667M22.667 2.667v26.667M2.667 16h26.667M2.667 9.333h6.667M2.667 22.667h6.667M22.667 22.667h6.667M22.667 9.333h6.667"/></symbol><symbol id="icon-footer" viewBox="0 0 32 32"><path fill="#ff6b08" style="fill:var(--color2,#ff6b08)" d="m16 30.583-2.24-2.24C5.44 20.983 0 16.023 0 9.943c0-4.96 3.84-8.8 8.8-8.8 2.72 0 5.44 1.28 7.2 3.36 1.76-2.08 4.48-3.36 7.2-3.36 4.96 0 8.8 3.84 8.8 8.8 0 6.08-5.44 11.04-13.76 18.4L16 30.583z"/></symbol><symbol id="icon-modal" viewBox="0 0 32 32"><path d="M4.292 5.708a1 1 0 1 1 1.416-1.416L16 14.586 26.292 4.292a1 1 0 1 1 1.416 1.416L17.414 16l10.294 10.292a1 1 0 1 1-1.416 1.416L16 17.414 5.708 27.708a1 1 0 1 1-1.416-1.416L14.586 16 4.292 5.708z"/></symbol><symbol id="icon-search" viewBox="0 0 32 32"><path fill="none" stroke="#fff" style="stroke:var(--color1,#fff)" stroke-linejoin="round" stroke-linecap="round" stroke-width="2.667" d="M14.667 25.333c5.891 0 10.667-4.776 10.667-10.667S20.558 3.999 14.667 3.999 4 8.775 4 14.666s4.776 10.667 10.667 10.667zM28 28.001l-5.8-5.8"/></symbol><svg id="sun" viewBox="0 0 32 32"><path d="M16 10c-3.306 0-6 2.694-6 6s2.694 6 6 6 6-2.694 6-6-2.694-6-6-6zm15.4 5.031-5.919-2.956L27.575 5.8c.281-.85-.525-1.656-1.369-1.369l-6.275 2.094L16.969.6c-.4-.8-1.537-.8-1.938 0l-2.956 5.919-6.281-2.094c-.85-.281-1.656.525-1.369 1.369l2.094 6.275L.6 15.032c-.8.4-.8 1.538 0 1.938l5.919 2.956-2.094 6.281c-.281.85.525 1.656 1.369 1.369l6.275-2.094 2.956 5.919c.4.8 1.538.8 1.938 0l2.956-5.919 6.275 2.094c.85.281 1.656-.525 1.369-1.369l-2.094-6.275 5.919-2.956c.813-.406.813-1.544.012-1.944zm-9.744 6.625c-3.119 3.119-8.194 3.119-11.313 0s-3.119-8.194 0-11.313c3.119-3.119 8.194-3.119 11.313 0s3.119 8.194 0 11.313z"/></svg><svg id="moon" viewBox="0 0 32 32"><path fill="#fff" stroke="#000" d="M17.701 32a15.97 15.97 0 0 0 12.429-5.925c.442-.544-.04-1.339-.723-1.209-7.763 1.478-14.891-4.474-14.891-12.31 0-4.514 2.416-8.665 6.344-10.9.605-.345.453-1.262-.235-1.389-.879-.17-1.89-.267-2.923-.268-8.832 0-16 7.157-16 16 0 8.832 7.157 16 16 16z"/></svg></defs></svg>