<svg aria-hidden="true" style="width:0;height:0;position:absolute;overflow:hidden" xmlns="http://www.w3.org/2000/svg"><defs><symbol id="icon-day-sunny" viewBox="0 0 32 32"><path d="M16.066 9.14a7 7 0 0 0-6.993 6.993 7 7 0 0 0 6.993 6.993 7 7 0 0 0 6.993-6.993 7 7 0 0 0-6.993-6.993zm0 13c-3.312 0-6.007-2.695-6.007-6.007s2.695-6.007 6.007-6.007 6.007 2.695 6.007 6.007-2.695 6.007-6.007 6.007zM16 6.584a.5.5 0 0 0 .5-.5V.5a.5.5 0 0 0-1 0v5.584a.5.5 0 0 0 .5.5zM16 25.415a.5.5 0 0 0-.5.5V31.5a.5.5 0 0 0 1 0v-5.585a.5.5 0 0 0-.5-.5zM31.132 15.223h-5.585a.5.5 0 0 0 0 1h5.585a.5.5 0 0 0 0-1zM6.953 15.723a.5.5 0 0 0-.5-.5H.868a.5.5 0 0 0 0 1h5.585a.5.5 0 0 0 .5-.5zM22.59 9.939a.502.502 0 0 0 .354-.146l3.949-3.949a.5.5 0 0 0-.707-.707l-3.949 3.949a.5.5 0 0 0 .354.853zM22.944 22.602a.5.5 0 0 0-.707.707l3.949 3.949a.498.498 0 0 0 .708 0 .5.5 0 0 0 0-.707l-3.949-3.949zM9.056 9.793a.498.498 0 0 0 .708 0 .5.5 0 0 0 0-.707L5.815 5.137a.5.5 0 0 0-.707.707l3.949 3.949zM9.786 22.635c-.009-.01-.012-.024-.022-.034a.5.5 0 0 0-.707 0l-1.97 1.97-2.017 1.922a.5.5 0 0 0-.017.707c.01.01.023.014.033.023.009.01.012.024.022.034a.498.498 0 0 0 .708 0l1.97-1.97 2.017-1.922a.5.5 0 0 0 .017-.707c-.01-.01-.023-.014-.033-.023z"/></symbol><symbol id="icon-moon-line" viewBox="0 0 32 32"><path d="M12.775.331a15.892 15.892 0 0 1 3.387-.33.57.57 0 0 1 .195 1.104 10.63 10.63 0 0 0-5.458 4.849 10.619 10.619 0 0 0-1.065 7.208l.003.018a10.627 10.627 0 0 0 4.578 6.747 10.63 10.63 0 0 0 8.002 1.542l.018-.003a10.615 10.615 0 0 0 5.286-2.807 10.715 10.715 0 0 0 2.95-5.25.57.57 0 0 1 1.117.036 15.954 15.954 0 0 1-2.62 11.642 15.931 15.931 0 0 1-9.942 6.585 15.954 15.954 0 0 1-12.025-2.307 15.965 15.965 0 0 1-6.872-10.14A15.948 15.948 0 0 1 2.48 7.442 15.96 15.96 0 0 1 12.49.391h.003l.281-.06zm.729 1.023c-.167.029-.333.06-.497.094l-.263.057c-.075.018-.164.036-.26.06a14.804 14.804 0 0 0-9.036 6.489 14.804 14.804 0 0 0-2 10.939 14.817 14.817 0 0 0 6.382 9.413 14.804 14.804 0 0 0 11.166 2.143 14.812 14.812 0 0 0 9.234-6.117 14.835 14.835 0 0 0 2.627-8.179 11.86 11.86 0 0 1-2.333 3.213 11.763 11.763 0 0 1-5.861 3.112h-.003a11.775 11.775 0 0 1-8.872-1.703 11.761 11.761 0 0 1-5.065-7.473v-.003a11.733 11.733 0 0 1 1.172-7.992 11.796 11.796 0 0 1 3.609-4.054z"/></symbol><symbol id="icon-arrow-left" viewBox="0 0 32 32"><path stroke-linejoin="round" stroke-linecap="round" stroke-width="2.667" d="M25.333 16H6.666M16 25.333 6.667 16 16 6.667"/></symbol><symbol id="icon-close" viewBox="0 0 32 32"><path stroke-width="2.133" d="m8.533 8.533 14.933 14.933M8.533 23.467 23.466 8.534"/></symbol><symbol id="icon-logo-filmoteka" viewBox="0 0 32 32"><path d="M26.427 2.667H5.574a2.907 2.907 0 0 0-2.907 2.907v20.853a2.907 2.907 0 0 0 2.907 2.907h20.853a2.907 2.907 0 0 0 2.907-2.907V5.574a2.907 2.907 0 0 0-2.907-2.907zM9.333 2.667v26.667M22.667 2.667v26.667M2.667 16h26.667M2.667 9.333h6.667M2.667 22.667h6.667M22.667 22.667h6.667M22.667 9.333h6.667"/></symbol><symbol id="icon-footer" viewBox="0 0 32 32"><path fill="#ff6b08" style="fill:var(--color2,#ff6b08)" d="m16 30.583-2.24-2.24C5.44 20.983 0 16.023 0 9.943c0-4.96 3.84-8.8 8.8-8.8 2.72 0 5.44 1.28 7.2 3.36 1.76-2.08 4.48-3.36 7.2-3.36 4.96 0 8.8 3.84 8.8 8.8 0 6.08-5.44 11.04-13.76 18.4L16 30.583z"/></symbol><symbol id="icon-modal" viewBox="0 0 32 32"><path d="M4.292 5.708a1 1 0 1 1 1.416-1.416L16 14.586 26.292 4.292a1 1 0 1 1 1.416 1.416L17.414 16l10.294 10.292a1 1 0 1 1-1.416 1.416L16 17.414 5.708 27.708a1 1 0 1 1-1.416-1.416L14.586 16 4.292 5.708z"/></symbol><symbol id="icon-search" viewBox="0 0 32 32"><path d="M14.667 25.333c5.891 0 10.667-4.776 10.667-10.667S20.558 3.999 14.667 3.999 4 8.775 4 14.666s4.776 10.667 10.667 10.667zM28 28.001l-5.8-5.8"/></symbol><symbol id="icon-arrow-left2" viewBox="0 0 32 32"><path d="m12.586 27.414-10-10a2 2 0 0 1 0-2.828l10-10a2 2 0 1 1 2.828 2.828L8.828 14H28a2 2 0 1 1 0 4H8.828l6.586 6.586c.39.39.586.902.586 1.414s-.195 1.024-.586 1.414a2 2 0 0 1-2.828 0z"/></symbol><symbol id="icon-key" viewBox="0 0 32 32"><path d="M22 0c-5.523 0-10 4.477-10 10 0 .626.058 1.238.168 1.832L0 24v6a2 2 0 0 0 2 2h2v-2h4v-4h4v-4h4l2.595-2.595A9.977 9.977 0 0 0 22 20c5.523 0 10-4.477 10-10S27.523 0 22 0zm2.996 10.004a3 3 0 1 1 0-6 3 3 0 0 1 0 6z"/></symbol><symbol id="icon-email-black-18dp-1" viewBox="0 0 32 32"><path d="M26.667 5.333H5.334A2.663 2.663 0 0 0 2.681 8l-.013 16c0 1.467 1.2 2.667 2.667 2.667h21.333c1.467 0 2.667-1.2 2.667-2.667V8c0-1.467-1.2-2.667-2.667-2.667zM26.133 11l-9.427 5.893a1.346 1.346 0 0 1-1.413 0L5.866 11a1.132 1.132 0 1 1 1.2-1.92l8.933 5.587 8.933-5.587a1.132 1.132 0 1 1 1.2 1.92z"/></symbol><symbol id="icon-close-black-18dp-2-1" viewBox="0 0 32 32"><path d="m26.667 7.303-1.97-1.97-7.808 7.808-7.808-7.808-1.97 1.97 7.808 7.808-7.808 7.808 1.97 1.97 7.808-7.808 7.808 7.808 1.97-1.97-7.808-7.808 7.808-7.808z"/></symbol><symbol id="icon-shocked" viewBox="0 0 32 32"><path d="M16 32c8.837 0 16-7.163 16-16S24.837 0 16 0 0 7.163 0 16s7.163 16 16 16zm0-29c7.18 0 13 5.82 13 13s-5.82 13-13 13S3 23.18 3 16 8.82 3 16 3zm-4 19a4 4 0 1 1 8 0 4 4 0 0 1-8 0zm8-11c0-1.657.895-3 2-3s2 1.343 2 3-.895 3-2 3-2-1.343-2-3zM8 11c0-1.657.895-3 2-3s2 1.343 2 3-.895 3-2 3-2-1.343-2-3z"/></symbol><symbol id="icon-person-black-18dp-1" viewBox="0 0 32 32"><path d="M16 16c2.947 0 5.333-2.387 5.333-5.333S18.946 5.334 16 5.334c-2.947 0-5.333 2.387-5.333 5.333S13.054 16 16 16zm0 2.667c-3.56 0-10.667 1.787-10.667 5.333v1.333c0 .733.6 1.333 1.333 1.333h18.667c.733 0 1.333-.6 1.333-1.333V24c0-3.547-7.107-5.333-10.667-5.333z"/></symbol><symbol id="icon-home3" viewBox="0 0 32 32"><path d="m32 19-6-6V4h-4v5l-6-6L0 19v1h4v10h10v-6h4v6h10V20h4z"/></symbol><symbol id="icon-video-camera" viewBox="0 0 32 32"><path d="M12 9a5 5 0 1 1 10.001.001A5 5 0 0 1 12 9zM0 9a5 5 0 1 1 10.001.001A5 5 0 0 1 0 9zm24 10v-3c0-1.1-.9-2-2-2H2c-1.1 0-2 .9-2 2v10c0 1.1.9 2 2 2h20c1.1 0 2-.9 2-2v-3l8 5V14l-8 5zm-4 5H4v-6h16v6z"/></symbol><symbol id="icon-smile" viewBox="0 0 32 32"><path d="M16 32c8.837 0 16-7.163 16-16S24.837 0 16 0 0 7.163 0 16s7.163 16 16 16zm0-29c7.18 0 13 5.82 13 13s-5.82 13-13 13S3 23.18 3 16 8.82 3 16 3zm-8 7a2 2 0 1 1 3.999-.001A2 2 0 0 1 8 10zm12 0a2 2 0 1 1 3.999-.001A2 2 0 0 1 20 10zm2.003 9.602 2.573 1.544c-1.749 2.908-4.935 4.855-8.576 4.855s-6.827-1.946-8.576-4.855l2.573-1.544C11.221 21.638 13.451 23 16 23s4.779-1.362 6.003-3.398z"/></symbol><symbol id="icon-sad" viewBox="0 0 32 32"><path d="M16 32c8.837 0 16-7.163 16-16S24.837 0 16 0 0 7.163 0 16s7.163 16 16 16zm0-29c7.18 0 13 5.82 13 13s-5.82 13-13 13S3 23.18 3 16 8.82 3 16 3zm-8 7a2 2 0 1 1 3.999-.001A2 2 0 0 1 8 10zm12 0a2 2 0 1 1 3.999-.001A2 2 0 0 1 20 10zM9.997 24.398l-2.573-1.544c1.749-2.908 4.935-4.855 8.576-4.855s6.827 1.946 8.576 4.855l-2.573 1.544C20.779 22.362 18.549 21 16 21s-4.779 1.362-6.003 3.398z"/></symbol><symbol id="icon-eye" viewBox="0 0 32 32"><path d="M16 6C9.021 6 2.972 10.064 0 16c2.972 5.936 9.021 10 16 10s13.027-4.064 16-10c-2.972-5.936-9.021-10-16-10zm7.889 5.303A15.212 15.212 0 0 1 28.559 16a15.223 15.223 0 0 1-4.67 4.697C21.527 22.204 18.799 23 16 23s-5.527-.796-7.889-2.303A15.212 15.212 0 0 1 3.441 16a15.223 15.223 0 0 1 5.041-4.925 8 8 0 1 0 15.036 0c.124.074.248.15.371.228zM16 13a3 3 0 1 1-6 0 3 3 0 0 1 6 0z"/></symbol><symbol id="icon-eye-blocked" viewBox="0 0 32 32"><path d="M29.561.439a1.5 1.5 0 0 0-2.121 0l-6.318 6.318A17.626 17.626 0 0 0 16 6C9.021 6 2.972 10.064 0 16a18.323 18.323 0 0 0 5.407 6.472L.439 27.44a1.5 1.5 0 1 0 2.122 2.121l27-27a1.5 1.5 0 0 0 0-2.121zM13 10a3 3 0 0 1 2.841 2.037l-3.804 3.804A3 3 0 0 1 13 10zm-9.559 6a15.223 15.223 0 0 1 5.041-4.925A7.985 7.985 0 0 0 8 13.812c0 1.715.54 3.304 1.459 4.607l-1.904 1.904A15.219 15.219 0 0 1 3.441 16zM24 13.813c0-.849-.133-1.667-.378-2.434L13.566 21.435a8 8 0 0 0 10.435-7.622z"/><path d="M25.938 9.062 23.77 11.23l.118.074a15.212 15.212 0 0 1 4.67 4.697 15.223 15.223 0 0 1-4.67 4.697 14.642 14.642 0 0 1-11.45 1.864l-2.403 2.403a17.587 17.587 0 0 0 5.964 1.036c6.978 0 13.027-4.064 16-10a18.292 18.292 0 0 0-6.062-6.938z"/></symbol></defs></svg>