<svg aria-hidden="true" style="position: absolute; width: 0; height: 0; overflow: hidden;" version="1.1" xmlns="http://www.w3.org/2000/svg" xmlns:xlink="http://www.w3.org/1999/xlink">
<defs>
<symbol id="icon-day-sunny" viewBox="0 0 32 32">
<path d="M16.066 9.14c-3.856 0-6.993 3.137-6.993 6.993s3.137 6.993 6.993 6.993 6.993-3.137 6.993-6.993-3.137-6.993-6.993-6.993zM16.066 22.14c-3.312 0-6.007-2.695-6.007-6.007s2.695-6.007 6.007-6.007 6.007 2.695 6.007 6.007-2.695 6.007-6.007 6.007z"></path>
<path d="M16 6.584c0.276 0 0.5-0.224 0.5-0.5v-5.584c0-0.276-0.224-0.5-0.5-0.5s-0.5 0.224-0.5 0.5v5.584c0 0.276 0.224 0.5 0.5 0.5z"></path>
<path d="M16 25.415c-0.276 0-0.5 0.224-0.5 0.5v5.585c0 0.276 0.224 0.5 0.5 0.5s0.5-0.224 0.5-0.5v-5.585c0-0.276-0.224-0.5-0.5-0.5z"></path>
<path d="M31.132 15.223h-5.585c-0.276 0-0.5 0.224-0.5 0.5s0.224 0.5 0.5 0.5h5.585c0.276 0 0.5-0.224 0.5-0.5s-0.224-0.5-0.5-0.5z"></path>
<path d="M6.953 15.723c0-0.276-0.224-0.5-0.5-0.5h-5.585c-0.276 0-0.5 0.224-0.5 0.5s0.224 0.5 0.5 0.5h5.585c0.276 0 0.5-0.224 0.5-0.5z"></path>
<path d="M22.59 9.939c0.128 0 0.256-0.049 0.354-0.146l3.949-3.949c0.195-0.195 0.195-0.512 0-0.707s-0.512-0.195-0.707 0l-3.949 3.949c-0.195 0.195-0.195 0.512 0 0.707 0.098 0.098 0.226 0.146 0.354 0.146z"></path>
<path d="M22.944 22.602c-0.195-0.195-0.512-0.195-0.707 0s-0.195 0.512 0 0.707l3.949 3.949c0.098 0.098 0.226 0.146 0.354 0.146s0.256-0.049 0.354-0.146c0.195-0.195 0.195-0.512 0-0.707l-3.949-3.949z"></path>
<path d="M9.056 9.793c0.098 0.098 0.226 0.146 0.354 0.146s0.256-0.049 0.354-0.146c0.195-0.195 0.195-0.512 0-0.707l-3.949-3.949c-0.195-0.195-0.512-0.195-0.707 0s-0.195 0.512 0 0.707l3.949 3.949z"></path>
<path d="M9.786 22.635c-0.009-0.010-0.012-0.024-0.022-0.034-0.195-0.195-0.512-0.195-0.707 0l-1.97 1.97-2.017 1.922c-0.2 0.191-0.208 0.507-0.017 0.707 0.010 0.010 0.023 0.014 0.033 0.023 0.009 0.010 0.012 0.024 0.022 0.034 0.098 0.098 0.226 0.146 0.354 0.146s0.256-0.049 0.354-0.146l1.97-1.97 2.017-1.922c0.2-0.191 0.208-0.507 0.017-0.707-0.010-0.010-0.023-0.014-0.033-0.023z"></path>
</symbol>
<symbol id="icon-moon-line" viewBox="0 0 32 32">
<path d="M12.775 0.331c0.565-0.117 1.13-0.201 1.687-0.255 0.573-0.055 1.141-0.081 1.7-0.075 0.315 0.003 0.568 0.26 0.565 0.575-0.003 0.242-0.156 0.448-0.37 0.529-2.383 0.937-4.289 2.685-5.458 4.849-1.151 2.127-1.588 4.656-1.065 7.208l0.003 0.018c0.596 2.88 2.299 5.247 4.578 6.747 2.276 1.5 5.122 2.13 8.002 1.542l0.018-0.003c2.073-0.43 3.877-1.43 5.286-2.807 1.458-1.424 2.489-3.25 2.95-5.25 0.070-0.307 0.378-0.497 0.682-0.427 0.232 0.055 0.398 0.242 0.435 0.463 0.687 4.218-0.352 8.351-2.62 11.642-2.258 3.276-5.736 5.721-9.942 6.585-4.328 0.891-8.606-0.057-12.025-2.307-3.422-2.258-5.981-5.812-6.872-10.14-0.87-4.226 0.013-8.406 2.151-11.783 2.148-3.388 5.559-5.973 9.734-6.986 0.081-0.021 0.174-0.042 0.276-0.065h0.003l0.281-0.060zM13.504 1.354c-0.167 0.029-0.333 0.060-0.497 0.094l-0.263 0.057c-0.075 0.018-0.164 0.036-0.26 0.060-3.875 0.94-7.044 3.341-9.036 6.489-1.987 3.138-2.807 7.018-2 10.939 0.828 4.018 3.205 7.32 6.382 9.413 3.174 2.091 7.148 2.971 11.166 2.143 3.906-0.805 7.137-3.075 9.234-6.117 1.633-2.367 2.578-5.203 2.627-8.179-0.591 1.193-1.38 2.281-2.333 3.213-1.562 1.526-3.565 2.638-5.861 3.112h-0.003c-3.192 0.656-6.348-0.042-8.872-1.703-2.521-1.661-4.409-4.284-5.065-7.473v-0.003c-0.586-2.833-0.104-5.635 1.172-7.992 0.864-1.599 2.096-2.995 3.609-4.054v0z"></path>
</symbol>
<svg id="sun" viewBox="0 0 32 32">
<path stroke=#000 d="M16 10c-3.306 0-6 2.694-6 6s2.694 6 6 6 6-2.694 6-6-2.694-6-6-6zm15.4 5.031l-5.919-2.956L27.575 5.8c.281-.85-.525-1.656-1.369-1.369l-6.275 2.094L16.969.6c-.4-.8-1.537-.8-1.938 0l-2.956 5.919-6.281-2.094c-.85-.281-1.656.525-1.369 1.369l2.094 6.275L.6 15.032c-.8.4-.8 1.538 0 1.938l5.919 2.956-2.094 6.281c-.281.85.525 1.656 1.369 1.369l6.275-2.094 2.956 5.919c.4.8 1.538.8 1.938 0l2.956-5.919 6.275 2.094c.85.281 1.656-.525 1.369-1.369l-2.094-6.275 5.919-2.956c.813-.406.813-1.544.012-1.944zm-9.744 6.625c-3.119 3.119-8.194 3.119-11.313 0s-3.119-8.194 0-11.313c3.119-3.119 8.194-3.119 11.313 0s3.119 8.194 0 11.313z"></path>
</svg>
<svg id="moon" viewBox="0 0 32 32">
<path fill=#fff stroke=#000  d="M17.701 32a15.97 15.97 0 0012.429-5.925c.442-.544-.04-1.339-.723-1.209-7.763 1.478-14.891-4.474-14.891-12.31 0-4.514 2.416-8.665 6.344-10.9.605-.345.453-1.262-.235-1.389-.879-.17-1.89-.267-2.923-.268-8.832 0-16 7.157-16 16 0 8.832 7.157 16 16 16z"></path>
</svg>
<symbol id="icon-arrow-left" viewBox="0 0 32 32">
<path stroke-linejoin="round" stroke-linecap="round" stroke-miterlimit="4" stroke-width="2.6667" d="M25.333 16h-18.667"></path>
<path stroke-linejoin="round" stroke-linecap="round" stroke-miterlimit="4" stroke-width="2.6667" d="M16 25.333l-9.333-9.333 9.333-9.333"></path>
</symbol>
<symbol id="icon-close" viewBox="0 0 32 32">
<path stroke-linejoin="miter" stroke-linecap="butt" stroke-miterlimit="4" stroke-width="2.1333" d="M8.533 8.533l14.933 14.933"></path>
<path stroke-linejoin="miter" stroke-linecap="butt" stroke-miterlimit="4" stroke-width="2.1333" d="M8.533 23.467l14.933-14.933"></path>
</symbol>
<symbol id="icon-logo-filmoteka" viewBox="0 0 32 32">
<path fill="none" stroke="#fff" style="stroke: var(--color1, #fff)" stroke-linejoin="round" stroke-linecap="round" stroke-miterlimit="4" stroke-width="2.6667" d="M26.427 2.667h-20.853c-1.605 0-2.907 1.301-2.907 2.907v20.853c0 1.605 1.301 2.907 2.907 2.907h20.853c1.605 0 2.907-1.301 2.907-2.907v-20.853c0-1.605-1.301-2.907-2.907-2.907z"></path>
<path fill="none" stroke="#fff" style="stroke: var(--color1, #fff)" stroke-linejoin="round" stroke-linecap="round" stroke-miterlimit="4" stroke-width="2.6667" d="M9.333 2.667v26.667"></path>
<path fill="none" stroke="#fff" style="stroke: var(--color1, #fff)" stroke-linejoin="round" stroke-linecap="round" stroke-miterlimit="4" stroke-width="2.6667" d="M22.667 2.667v26.667"></path>
<path fill="none" stroke="#fff" style="stroke: var(--color1, #fff)" stroke-linejoin="round" stroke-linecap="round" stroke-miterlimit="4" stroke-width="2.6667" d="M2.667 16h26.667"></path>
<path fill="none" stroke="#fff" style="stroke: var(--color1, #fff)" stroke-linejoin="round" stroke-linecap="round" stroke-miterlimit="4" stroke-width="2.6667" d="M2.667 9.333h6.667"></path>
<path fill="none" stroke="#fff" style="stroke: var(--color1, #fff)" stroke-linejoin="round" stroke-linecap="round" stroke-miterlimit="4" stroke-width="2.6667" d="M2.667 22.667h6.667"></path>
<path fill="none" stroke="#fff" style="stroke: var(--color1, #fff)" stroke-linejoin="round" stroke-linecap="round" stroke-miterlimit="4" stroke-width="2.6667" d="M22.667 22.667h6.667"></path>
<path fill="none" stroke="#fff" style="stroke: var(--color1, #fff)" stroke-linejoin="round" stroke-linecap="round" stroke-miterlimit="4" stroke-width="2.6667" d="M22.667 9.333h6.667"></path>
</symbol>
<symbol id="icon-footer" viewBox="0 0 32 32">
<path fill="#ff6b08" style="fill: var(--color2, #ff6b08)" d="M16 30.583l-2.24-2.24c-8.32-7.36-13.76-12.32-13.76-18.4 0-4.96 3.84-8.8 8.8-8.8 2.72 0 5.44 1.28 7.2 3.36 1.76-2.080 4.48-3.36 7.2-3.36 4.96 0 8.8 3.84 8.8 8.8 0 6.080-5.44 11.040-13.76 18.4l-2.24 2.24z"></path>
</symbol>
<symbol id="icon-modal" viewBox="0 0 32 32">
<path d="M4.292 5.708c-0.181-0.181-0.293-0.431-0.293-0.708 0-0.553 0.448-1.001 1.001-1.001 0.277 0 0.527 0.112 0.708 0.293v0l10.292 10.294 10.292-10.294c0.181-0.181 0.431-0.293 0.708-0.293 0.553 0 1.001 0.448 1.001 1.001 0 0.277-0.112 0.527-0.293 0.708v0l-10.294 10.292 10.294 10.292c0.181 0.181 0.293 0.431 0.293 0.708 0 0.553-0.448 1.001-1.001 1.001-0.276 0-0.527-0.112-0.708-0.293v0l-10.292-10.294-10.292 10.294c-0.181 0.181-0.431 0.293-0.708 0.293-0.553 0-1.001-0.448-1.001-1.001 0-0.276 0.112-0.527 0.293-0.708v0l10.294-10.292-10.294-10.292z"></path>
</symbol>
<symbol id="icon-search" viewBox="0 0 32 32">
<path fill="none" stroke="#fff" style="stroke: var(--color1, #fff)" stroke-linejoin="round" stroke-linecap="round" stroke-miterlimit="4" stroke-width="2.6667" d="M14.667 25.333c5.891 0 10.667-4.776 10.667-10.667s-4.776-10.667-10.667-10.667c-5.891 0-10.667 4.776-10.667 10.667s4.776 10.667 10.667 10.667z"></path>
<path fill="none" stroke="#fff" style="stroke: var(--color1, #fff)" stroke-linejoin="round" stroke-linecap="round" stroke-miterlimit="4" stroke-width="2.6667" d="M28 28.001l-5.8-5.8"></path>
</symbol>
</defs>
</svg>
