<!-- Generated by IcoMoon.io -->
<svg version="1.1" xmlns="http://www.w3.org/2000/svg" width="32" height="32" viewBox="0 0 32 32">
<title>day-sunny</title>
<path d="M16.066 9.14c-3.856 0-6.993 3.137-6.993 6.993s3.137 6.993 6.993 6.993 6.993-3.137 6.993-6.993-3.137-6.993-6.993-6.993zM16.066 22.14c-3.312 0-6.007-2.695-6.007-6.007s2.695-6.007 6.007-6.007 6.007 2.695 6.007 6.007-2.695 6.007-6.007 6.007z"></path>
<path d="M16 6.584c0.276 0 0.5-0.224 0.5-0.5v-5.584c0-0.276-0.224-0.5-0.5-0.5s-0.5 0.224-0.5 0.5v5.584c0 0.276 0.224 0.5 0.5 0.5z"></path>
<path d="M16 25.415c-0.276 0-0.5 0.224-0.5 0.5v5.585c0 0.276 0.224 0.5 0.5 0.5s0.5-0.224 0.5-0.5v-5.585c0-0.276-0.224-0.5-0.5-0.5z"></path>
<path d="M31.132 15.223h-5.585c-0.276 0-0.5 0.224-0.5 0.5s0.224 0.5 0.5 0.5h5.585c0.276 0 0.5-0.224 0.5-0.5s-0.224-0.5-0.5-0.5z"></path>
<path d="M6.953 15.723c0-0.276-0.224-0.5-0.5-0.5h-5.585c-0.276 0-0.5 0.224-0.5 0.5s0.224 0.5 0.5 0.5h5.585c0.276 0 0.5-0.224 0.5-0.5z"></path>
<path d="M22.59 9.939c0.128 0 0.256-0.049 0.354-0.146l3.949-3.949c0.195-0.195 0.195-0.512 0-0.707s-0.512-0.195-0.707 0l-3.949 3.949c-0.195 0.195-0.195 0.512 0 0.707 0.098 0.098 0.226 0.146 0.354 0.146z"></path>
<path d="M22.944 22.602c-0.195-0.195-0.512-0.195-0.707 0s-0.195 0.512 0 0.707l3.949 3.949c0.098 0.098 0.226 0.146 0.354 0.146s0.256-0.049 0.354-0.146c0.195-0.195 0.195-0.512 0-0.707l-3.949-3.949z"></path>
<path d="M9.056 9.793c0.098 0.098 0.226 0.146 0.354 0.146s0.256-0.049 0.354-0.146c0.195-0.195 0.195-0.512 0-0.707l-3.949-3.949c-0.195-0.195-0.512-0.195-0.707 0s-0.195 0.512 0 0.707l3.949 3.949z"></path>
<path d="M9.786 22.635c-0.009-0.010-0.012-0.024-0.022-0.034-0.195-0.195-0.512-0.195-0.707 0l-1.97 1.97-2.017 1.922c-0.2 0.191-0.208 0.507-0.017 0.707 0.010 0.010 0.023 0.014 0.033 0.023 0.009 0.010 0.012 0.024 0.022 0.034 0.098 0.098 0.226 0.146 0.354 0.146s0.256-0.049 0.354-0.146l1.97-1.97 2.017-1.922c0.2-0.191 0.208-0.507 0.017-0.707-0.010-0.010-0.023-0.014-0.033-0.023z"></path>
</svg>
