<svg aria-hidden="true" style="position: absolute; width: 0; height: 0; overflow: hidden;" version="1.1"
    xmlns="http://www.w3.org/2000/svg"
    xmlns:xlink="http://www.w3.org/1999/xlink">
    <defs>
        <symbol id="icon-day-sunny" viewBox="0 0 32 32">
            <path d="M16.066 9.14c-3.856 0-6.993 3.137-6.993 6.993s3.137 6.993 6.993 6.993 6.993-3.137 6.993-6.993-3.137-6.993-6.993-6.993zM16.066 22.14c-3.312 0-6.007-2.695-6.007-6.007s2.695-6.007 6.007-6.007 6.007 2.695 6.007 6.007-2.695 6.007-6.007 6.007z"></path>
            <path d="M16 6.584c0.276 0 0.5-0.224 0.5-0.5v-5.584c0-0.276-0.224-0.5-0.5-0.5s-0.5 0.224-0.5 0.5v5.584c0 0.276 0.224 0.5 0.5 0.5z"></path>
            <path d="M16 25.415c-0.276 0-0.5 0.224-0.5 0.5v5.585c0 0.276 0.224 0.5 0.5 0.5s0.5-0.224 0.5-0.5v-5.585c0-0.276-0.224-0.5-0.5-0.5z"></path>
            <path d="M31.132 15.223h-5.585c-0.276 0-0.5 0.224-0.5 0.5s0.224 0.5 0.5 0.5h5.585c0.276 0 0.5-0.224 0.5-0.5s-0.224-0.5-0.5-0.5z"></path>
            <path d="M6.953 15.723c0-0.276-0.224-0.5-0.5-0.5h-5.585c-0.276 0-0.5 0.224-0.5 0.5s0.224 0.5 0.5 0.5h5.585c0.276 0 0.5-0.224 0.5-0.5z"></path>
            <path d="M22.59 9.939c0.128 0 0.256-0.049 0.354-0.146l3.949-3.949c0.195-0.195 0.195-0.512 0-0.707s-0.512-0.195-0.707 0l-3.949 3.949c-0.195 0.195-0.195 0.512 0 0.707 0.098 0.098 0.226 0.146 0.354 0.146z"></path>
            <path d="M22.944 22.602c-0.195-0.195-0.512-0.195-0.707 0s-0.195 0.512 0 0.707l3.949 3.949c0.098 0.098 0.226 0.146 0.354 0.146s0.256-0.049 0.354-0.146c0.195-0.195 0.195-0.512 0-0.707l-3.949-3.949z"></path>
            <path d="M9.056 9.793c0.098 0.098 0.226 0.146 0.354 0.146s0.256-0.049 0.354-0.146c0.195-0.195 0.195-0.512 0-0.707l-3.949-3.949c-0.195-0.195-0.512-0.195-0.707 0s-0.195 0.512 0 0.707l3.949 3.949z"></path>
            <path d="M9.786 22.635c-0.009-0.010-0.012-0.024-0.022-0.034-0.195-0.195-0.512-0.195-0.707 0l-1.97 1.97-2.017 1.922c-0.2 0.191-0.208 0.507-0.017 0.707 0.010 0.010 0.023 0.014 0.033 0.023 0.009 0.010 0.012 0.024 0.022 0.034 0.098 0.098 0.226 0.146 0.354 0.146s0.256-0.049 0.354-0.146l1.97-1.97 2.017-1.922c0.2-0.191 0.208-0.507 0.017-0.707-0.010-0.010-0.023-0.014-0.033-0.023z"></path>
        </symbol>
        <symbol id="icon-moon-line" viewBox="0 0 32 32">
            <path d="M12.775 0.331c0.565-0.117 1.13-0.201 1.687-0.255 0.573-0.055 1.141-0.081 1.7-0.075 0.315 0.003 0.568 0.26 0.565 0.575-0.003 0.242-0.156 0.448-0.37 0.529-2.383 0.937-4.289 2.685-5.458 4.849-1.151 2.127-1.588 4.656-1.065 7.208l0.003 0.018c0.596 2.88 2.299 5.247 4.578 6.747 2.276 1.5 5.122 2.13 8.002 1.542l0.018-0.003c2.073-0.43 3.877-1.43 5.286-2.807 1.458-1.424 2.489-3.25 2.95-5.25 0.070-0.307 0.378-0.497 0.682-0.427 0.232 0.055 0.398 0.242 0.435 0.463 0.687 4.218-0.352 8.351-2.62 11.642-2.258 3.276-5.736 5.721-9.942 6.585-4.328 0.891-8.606-0.057-12.025-2.307-3.422-2.258-5.981-5.812-6.872-10.14-0.87-4.226 0.013-8.406 2.151-11.783 2.148-3.388 5.559-5.973 9.734-6.986 0.081-0.021 0.174-0.042 0.276-0.065h0.003l0.281-0.060zM13.504 1.354c-0.167 0.029-0.333 0.060-0.497 0.094l-0.263 0.057c-0.075 0.018-0.164 0.036-0.26 0.060-3.875 0.94-7.044 3.341-9.036 6.489-1.987 3.138-2.807 7.018-2 10.939 0.828 4.018 3.205 7.32 6.382 9.413 3.174 2.091 7.148 2.971 11.166 2.143 3.906-0.805 7.137-3.075 9.234-6.117 1.633-2.367 2.578-5.203 2.627-8.179-0.591 1.193-1.38 2.281-2.333 3.213-1.562 1.526-3.565 2.638-5.861 3.112h-0.003c-3.192 0.656-6.348-0.042-8.872-1.703-2.521-1.661-4.409-4.284-5.065-7.473v-0.003c-0.586-2.833-0.104-5.635 1.172-7.992 0.864-1.599 2.096-2.995 3.609-4.054v0z"></path>
        </symbol>
        <symbol id="icon-arrow-left" viewBox="0 0 32 32">
            <path stroke-linejoin="round" stroke-linecap="round" stroke-miterlimit="4" stroke-width="2.6667" d="M25.333 16h-18.667"></path>
            <path stroke-linejoin="round" stroke-linecap="round" stroke-miterlimit="4" stroke-width="2.6667" d="M16 25.333l-9.333-9.333 9.333-9.333"></path>
        </symbol>
        <symbol id="icon-close" viewBox="0 0 32 32">
            <path stroke-linejoin="miter" stroke-linecap="butt" stroke-miterlimit="4" stroke-width="2.1333" d="M8.533 8.533l14.933 14.933"></path>
            <path stroke-linejoin="miter" stroke-linecap="butt" stroke-miterlimit="4" stroke-width="2.1333" d="M8.533 23.467l14.933-14.933"></path>
        </symbol>
        <symbol id="icon-logo-filmoteka" viewBox="0 0 32 32">
            <path d="M26.427 2.667h-20.853c-1.605 0-2.907 1.301-2.907 2.907v20.853c0 1.605 1.301 2.907 2.907 2.907h20.853c1.605 0 2.907-1.301 2.907-2.907v-20.853c0-1.605-1.301-2.907-2.907-2.907z"></path>
            <path d="M9.333 2.667v26.667"></path>
            <path d="M22.667 2.667v26.667"></path>
            <path d="M2.667 16h26.667"></path>
            <path d="M2.667 9.333h6.667"></path>
            <path d="M2.667 22.667h6.667"></path>
            <path d="M22.667 22.667h6.667"></path>
            <path d="M22.667 9.333h6.667"></path>
        </symbol>
        <symbol id="icon-footer" viewBox="0 0 32 32">
            <path fill="#ff6b08" style="fill: var(--color2, #ff6b08)" d="M16 30.583l-2.24-2.24c-8.32-7.36-13.76-12.32-13.76-18.4 0-4.96 3.84-8.8 8.8-8.8 2.72 0 5.44 1.28 7.2 3.36 1.76-2.080 4.48-3.36 7.2-3.36 4.96 0 8.8 3.84 8.8 8.8 0 6.080-5.44 11.040-13.76 18.4l-2.24 2.24z"></path>
        </symbol>
        <symbol id="icon-modal" viewBox="0 0 32 32">
            <path d="M4.292 5.708c-0.181-0.181-0.293-0.431-0.293-0.708 0-0.553 0.448-1.001 1.001-1.001 0.277 0 0.527 0.112 0.708 0.293v0l10.292 10.294 10.292-10.294c0.181-0.181 0.431-0.293 0.708-0.293 0.553 0 1.001 0.448 1.001 1.001 0 0.277-0.112 0.527-0.293 0.708v0l-10.294 10.292 10.294 10.292c0.181 0.181 0.293 0.431 0.293 0.708 0 0.553-0.448 1.001-1.001 1.001-0.276 0-0.527-0.112-0.708-0.293v0l-10.292-10.294-10.292 10.294c-0.181 0.181-0.431 0.293-0.708 0.293-0.553 0-1.001-0.448-1.001-1.001 0-0.276 0.112-0.527 0.293-0.708v0l10.294-10.292-10.294-10.292z"></path>
        </symbol>
        <symbol id="icon-search" viewBox="0 0 32 32">
            <path d="M14.667 25.333c5.891 0 10.667-4.776 10.667-10.667s-4.776-10.667-10.667-10.667c-5.891 0-10.667 4.776-10.667 10.667s4.776 10.667 10.667 10.667z"></path>
            <path d="M28 28.001l-5.8-5.8"></path>
        </symbol>
        <symbol id="icon-arrow-left2" viewBox="0 0 32 32">
            <path d="M12.586 27.414l-10-10c-0.781-0.781-0.781-2.047 0-2.828l10-10c0.781-0.781 2.047-0.781 2.828 0s0.781 2.047 0 2.828l-6.586 6.586h19.172c1.105 0 2 0.895 2 2s-0.895 2-2 2h-19.172l6.586 6.586c0.39 0.39 0.586 0.902 0.586 1.414s-0.195 1.024-0.586 1.414c-0.781 0.781-2.047 0.781-2.828 0z"></path>
        </symbol>
        <symbol id="icon-key" viewBox="0 0 32 32">
            <path d="M22 0c-5.523 0-10 4.477-10 10 0 0.626 0.058 1.238 0.168 1.832l-12.168 12.168v6c0 1.105 0.895 2 2 2h2v-2h4v-4h4v-4h4l2.595-2.595c1.063 0.385 2.209 0.595 3.405 0.595 5.523 0 10-4.477 10-10s-4.477-10-10-10zM24.996 10.004c-1.657 0-3-1.343-3-3s1.343-3 3-3 3 1.343 3 3-1.343 3-3 3z"></path>
        </symbol>
        <symbol id="icon-email-black-18dp-1" viewBox="0 0 32 32">
            <path d="M26.667 5.333h-21.333c-1.467 0-2.653 1.2-2.653 2.667l-0.013 16c0 1.467 1.2 2.667 2.667 2.667h21.333c1.467 0 2.667-1.2 2.667-2.667v-16c0-1.467-1.2-2.667-2.667-2.667zM26.133 11l-9.427 5.893c-0.427 0.267-0.987 0.267-1.413 0l-9.427-5.893c-0.333-0.213-0.533-0.573-0.533-0.96 0-0.893 0.973-1.427 1.733-0.96l8.933 5.587 8.933-5.587c0.76-0.467 1.733 0.067 1.733 0.96 0 0.387-0.2 0.747-0.533 0.96z"></path>
        </symbol>
        <symbol id="icon-close-black-18dp-2-1" viewBox="0 0 32 32">
            <path d="M26.667 7.303l-1.97-1.97-7.808 7.808-7.808-7.808-1.97 1.97 7.808 7.808-7.808 7.808 1.97 1.97 7.808-7.808 7.808 7.808 1.97-1.97-7.808-7.808 7.808-7.808z"></path>
        </symbol>
        <symbol id="icon-shocked" viewBox="0 0 32 32">
            <path d="M16 32c8.837 0 16-7.163 16-16s-7.163-16-16-16-16 7.163-16 16 7.163 16 16 16zM16 3c7.18 0 13 5.82 13 13s-5.82 13-13 13-13-5.82-13-13 5.82-13 13-13zM12 22c0-2.209 1.791-4 4-4s4 1.791 4 4c0 2.209-1.791 4-4 4s-4-1.791-4-4zM20 11c0-1.657 0.895-3 2-3s2 1.343 2 3c0 1.657-0.895 3-2 3s-2-1.343-2-3zM8 11c0-1.657 0.895-3 2-3s2 1.343 2 3c0 1.657-0.895 3-2 3s-2-1.343-2-3z"></path>
        </symbol>
        <symbol id="icon-person-black-18dp-1" viewBox="0 0 32 32">
            <path d="M16 16c2.947 0 5.333-2.387 5.333-5.333s-2.387-5.333-5.333-5.333c-2.947 0-5.333 2.387-5.333 5.333s2.387 5.333 5.333 5.333zM16 18.667c-3.56 0-10.667 1.787-10.667 5.333v1.333c0 0.733 0.6 1.333 1.333 1.333h18.667c0.733 0 1.333-0.6 1.333-1.333v-1.333c0-3.547-7.107-5.333-10.667-5.333z"></path>
        </symbol>
        <symbol id="icon-home3" viewBox="0 0 32 32">
            <path d="M32 19l-6-6v-9h-4v5l-6-6-16 16v1h4v10h10v-6h4v6h10v-10h4z"></path>
        </symbol>
        <symbol id="icon-video-camera" viewBox="0 0 32 32">
            <path d="M12 9c0-2.761 2.239-5 5-5s5 2.239 5 5c0 2.761-2.239 5-5 5s-5-2.239-5-5zM0 9c0-2.761 2.239-5 5-5s5 2.239 5 5c0 2.761-2.239 5-5 5s-5-2.239-5-5zM24 19v-3c0-1.1-0.9-2-2-2h-20c-1.1 0-2 0.9-2 2v10c0 1.1 0.9 2 2 2h20c1.1 0 2-0.9 2-2v-3l8 5v-14l-8 5zM20 24h-16v-6h16v6z"></path>
        </symbol>
        <symbol id="icon-smile" viewBox="0 0 32 32">
            <path d="M16 32c8.837 0 16-7.163 16-16s-7.163-16-16-16-16 7.163-16 16 7.163 16 16 16zM16 3c7.18 0 13 5.82 13 13s-5.82 13-13 13-13-5.82-13-13 5.82-13 13-13zM8 10c0-1.105 0.895-2 2-2s2 0.895 2 2c0 1.105-0.895 2-2 2s-2-0.895-2-2zM20 10c0-1.105 0.895-2 2-2s2 0.895 2 2c0 1.105-0.895 2-2 2s-2-0.895-2-2zM22.003 19.602l2.573 1.544c-1.749 2.908-4.935 4.855-8.576 4.855s-6.827-1.946-8.576-4.855l2.573-1.544c1.224 2.036 3.454 3.398 6.003 3.398s4.779-1.362 6.003-3.398z"></path>
        </symbol>
        <symbol id="icon-sad" viewBox="0 0 32 32">
            <path d="M16 32c8.837 0 16-7.163 16-16s-7.163-16-16-16-16 7.163-16 16 7.163 16 16 16zM16 3c7.18 0 13 5.82 13 13s-5.82 13-13 13-13-5.82-13-13 5.82-13 13-13zM8 10c0-1.105 0.895-2 2-2s2 0.895 2 2c0 1.105-0.895 2-2 2s-2-0.895-2-2zM20 10c0-1.105 0.895-2 2-2s2 0.895 2 2c0 1.105-0.895 2-2 2s-2-0.895-2-2zM9.997 24.398l-2.573-1.544c1.749-2.908 4.935-4.855 8.576-4.855s6.827 1.946 8.576 4.855l-2.573 1.544c-1.224-2.036-3.454-3.398-6.003-3.398s-4.779 1.362-6.003 3.398z"></path>
        </symbol>
        <symbol id="icon-eye" viewBox="0 0 32 32">
            <path d="M16 6c-6.979 0-13.028 4.064-16 10 2.972 5.936 9.021 10 16 10s13.027-4.064 16-10c-2.972-5.936-9.021-10-16-10zM23.889 11.303c1.88 1.199 3.473 2.805 4.67 4.697-1.197 1.891-2.79 3.498-4.67 4.697-2.362 1.507-5.090 2.303-7.889 2.303s-5.527-0.796-7.889-2.303c-1.88-1.199-3.473-2.805-4.67-4.697 1.197-1.891 2.79-3.498 4.67-4.697 0.122-0.078 0.246-0.154 0.371-0.228-0.311 0.854-0.482 1.776-0.482 2.737 0 4.418 3.582 8 8 8s8-3.582 8-8c0-0.962-0.17-1.883-0.482-2.737 0.124 0.074 0.248 0.15 0.371 0.228v0zM16 13c0 1.657-1.343 3-3 3s-3-1.343-3-3 1.343-3 3-3 3 1.343 3 3z"></path>
        </symbol>
        <symbol id="icon-eye-blocked" viewBox="0 0 32 32">
            <path d="M29.561 0.439c-0.586-0.586-1.535-0.586-2.121 0l-6.318 6.318c-1.623-0.492-3.342-0.757-5.122-0.757-6.979 0-13.028 4.064-16 10 1.285 2.566 3.145 4.782 5.407 6.472l-4.968 4.968c-0.586 0.586-0.586 1.535 0 2.121 0.293 0.293 0.677 0.439 1.061 0.439s0.768-0.146 1.061-0.439l27-27c0.586-0.586 0.586-1.536 0-2.121zM13 10c1.32 0 2.44 0.853 2.841 2.037l-3.804 3.804c-1.184-0.401-2.037-1.521-2.037-2.841 0-1.657 1.343-3 3-3zM3.441 16c1.197-1.891 2.79-3.498 4.67-4.697 0.122-0.078 0.246-0.154 0.371-0.228-0.311 0.854-0.482 1.776-0.482 2.737 0 1.715 0.54 3.304 1.459 4.607l-1.904 1.904c-1.639-1.151-3.038-2.621-4.114-4.323z"></path>
            <path d="M24 13.813c0-0.849-0.133-1.667-0.378-2.434l-10.056 10.056c0.768 0.245 1.586 0.378 2.435 0.378 4.418 0 8-3.582 8-8z"></path>
            <path d="M25.938 9.062l-2.168 2.168c0.040 0.025 0.079 0.049 0.118 0.074 1.88 1.199 3.473 2.805 4.67 4.697-1.197 1.891-2.79 3.498-4.67 4.697-2.362 1.507-5.090 2.303-7.889 2.303-1.208 0-2.403-0.149-3.561-0.439l-2.403 2.403c1.866 0.671 3.873 1.036 5.964 1.036 6.978 0 13.027-4.064 16-10-1.407-2.81-3.504-5.2-6.062-6.938z"></path>
        </symbol>
    </defs>
</svg>
